<svg width="196" height="225" viewBox="0 0 196 225" fill="none" xmlns="http://www.w3.org/2000/svg">
<path d="M154 89.1355L194 3V89.1355V129.103V222H102L142.5 129.103H194V89.1355H154Z" fill="black"/>
<path d="M194 3L154 89.1355H194V129.103H142.5L102 222H194V3Z" stroke="black" stroke-width="4"/>
<path d="M2 7.5L32.5 59.8897H16H2V94.9962H46.5L65 133.343H32.5H2V173.311H79.5L99 222.46H2V173.311V133.343V94.9962V59.8897V7.5Z" fill="black"/>
<path d="M2 133.343V173.311H79.5L99 222.46H2M2 133.343H32.5H65L46.5 94.9962H2V59.8897H16H32.5L2 7.5V222.46M2 133.343V222.46" stroke="black" stroke-width="4"/>
</svg>
